<mxfile host="app.diagrams.net" modified="2024-02-03T14:46:08.123Z" agent="Mozilla/5.0 (Windows NT 10.0; Win64; x64) AppleWebKit/537.36 (KHTML, like Gecko) Chrome/121.0.0.0 Safari/537.36" etag="KaFUI2wy1t-Hy7Cpz6AI" version="23.1.1" type="device">
  <diagram name="第 1 页" id="hH0LKVJ7pp5HMZkIdII2">
    <mxGraphModel dx="1915" dy="482" grid="1" gridSize="10" guides="1" tooltips="1" connect="1" arrows="1" fold="1" page="1" pageScale="1" pageWidth="827" pageHeight="1169" math="0" shadow="0">
      <root>
        <mxCell id="0" />
        <mxCell id="1" parent="0" />
        <mxCell id="lhTCApkAulSA1Vch31sw-29" value="&lt;font style=&quot;font-size: 20px;&quot;&gt;model&lt;br&gt;&lt;br&gt;&lt;br&gt;&lt;br&gt;&lt;br&gt;&lt;br&gt;&lt;br&gt;&lt;br&gt;&lt;br&gt;&lt;br&gt;&lt;br&gt;&lt;br&gt;&lt;br&gt;&lt;br&gt;&lt;/font&gt;" style="rounded=0;whiteSpace=wrap;html=1;fillColor=#d5e8d4;strokeColor=#82b366;" vertex="1" parent="1">
          <mxGeometry x="-390" y="170" width="630" height="390" as="geometry" />
        </mxCell>
        <mxCell id="lhTCApkAulSA1Vch31sw-27" value="&lt;font style=&quot;font-size: 21px;&quot;&gt;input&lt;/font&gt;&lt;br&gt;&lt;br&gt;&lt;br&gt;&lt;br&gt;&lt;br&gt;&lt;br&gt;&lt;br&gt;&lt;br&gt;&lt;br&gt;&lt;br&gt;&lt;br&gt;&lt;br&gt;&lt;br&gt;&lt;br&gt;&lt;br&gt;" style="rounded=0;whiteSpace=wrap;html=1;fillColor=#ffe6cc;strokeColor=#d79b00;" vertex="1" parent="1">
          <mxGeometry x="-695" y="190" width="250" height="290" as="geometry" />
        </mxCell>
        <mxCell id="lhTCApkAulSA1Vch31sw-1" value="Wimbledon_featured_matches.csv" style="rounded=1;whiteSpace=wrap;html=1;" vertex="1" parent="1">
          <mxGeometry x="-670" y="270" width="200" height="60" as="geometry" />
        </mxCell>
        <mxCell id="lhTCApkAulSA1Vch31sw-5" value="" style="edgeStyle=orthogonalEdgeStyle;rounded=0;orthogonalLoop=1;jettySize=auto;html=1;exitX=1;exitY=0.25;exitDx=0;exitDy=0;" edge="1" parent="1" source="lhTCApkAulSA1Vch31sw-2" target="lhTCApkAulSA1Vch31sw-3">
          <mxGeometry relative="1" as="geometry">
            <mxPoint x="-480" y="400" as="sourcePoint" />
            <Array as="points">
              <mxPoint x="-280" y="415" />
              <mxPoint x="-280" y="380" />
            </Array>
          </mxGeometry>
        </mxCell>
        <mxCell id="lhTCApkAulSA1Vch31sw-2" value="player_history.csv" style="rounded=1;whiteSpace=wrap;html=1;" vertex="1" parent="1">
          <mxGeometry x="-650" y="400" width="160" height="60" as="geometry" />
        </mxCell>
        <mxCell id="lhTCApkAulSA1Vch31sw-3" value="quality model" style="rhombus;whiteSpace=wrap;html=1;" vertex="1" parent="1">
          <mxGeometry x="-200" y="340" width="130" height="80" as="geometry" />
        </mxCell>
        <mxCell id="lhTCApkAulSA1Vch31sw-7" value="elo model" style="rhombus;whiteSpace=wrap;html=1;" vertex="1" parent="1">
          <mxGeometry x="-200" y="460" width="130" height="70" as="geometry" />
        </mxCell>
        <mxCell id="lhTCApkAulSA1Vch31sw-8" value="" style="endArrow=classic;html=1;rounded=0;entryX=0;entryY=0.5;entryDx=0;entryDy=0;exitX=1;exitY=0.75;exitDx=0;exitDy=0;" edge="1" parent="1" source="lhTCApkAulSA1Vch31sw-2" target="lhTCApkAulSA1Vch31sw-7">
          <mxGeometry width="50" height="50" relative="1" as="geometry">
            <mxPoint x="-480" y="470" as="sourcePoint" />
            <mxPoint x="-300" y="440" as="targetPoint" />
          </mxGeometry>
        </mxCell>
        <mxCell id="lhTCApkAulSA1Vch31sw-15" value="" style="edgeStyle=orthogonalEdgeStyle;rounded=0;orthogonalLoop=1;jettySize=auto;html=1;" edge="1" parent="1" source="lhTCApkAulSA1Vch31sw-9" target="lhTCApkAulSA1Vch31sw-14">
          <mxGeometry relative="1" as="geometry" />
        </mxCell>
        <mxCell id="lhTCApkAulSA1Vch31sw-9" value="feature engineering" style="shape=hexagon;perimeter=hexagonPerimeter2;whiteSpace=wrap;html=1;fixedSize=1;" vertex="1" parent="1">
          <mxGeometry x="-340" y="250" width="130" height="80" as="geometry" />
        </mxCell>
        <mxCell id="lhTCApkAulSA1Vch31sw-10" value="" style="endArrow=classic;html=1;rounded=0;entryX=0;entryY=0.5;entryDx=0;entryDy=0;" edge="1" parent="1" target="lhTCApkAulSA1Vch31sw-9">
          <mxGeometry width="50" height="50" relative="1" as="geometry">
            <mxPoint x="-470" y="290" as="sourcePoint" />
            <mxPoint x="-400" y="270" as="targetPoint" />
          </mxGeometry>
        </mxCell>
        <mxCell id="lhTCApkAulSA1Vch31sw-14" value="gru model" style="rhombus;whiteSpace=wrap;html=1;" vertex="1" parent="1">
          <mxGeometry x="-10" y="250" width="160" height="80" as="geometry" />
        </mxCell>
        <mxCell id="lhTCApkAulSA1Vch31sw-22" value="" style="edgeStyle=orthogonalEdgeStyle;rounded=0;orthogonalLoop=1;jettySize=auto;html=1;" edge="1" parent="1" source="lhTCApkAulSA1Vch31sw-17" target="lhTCApkAulSA1Vch31sw-21">
          <mxGeometry relative="1" as="geometry" />
        </mxCell>
        <mxCell id="lhTCApkAulSA1Vch31sw-17" value="FC layer" style="rhombus;whiteSpace=wrap;html=1;" vertex="1" parent="1">
          <mxGeometry x="140" y="340" width="80" height="80" as="geometry" />
        </mxCell>
        <mxCell id="lhTCApkAulSA1Vch31sw-18" value="" style="endArrow=classic;html=1;rounded=0;entryX=0.5;entryY=0;entryDx=0;entryDy=0;exitX=1;exitY=0.5;exitDx=0;exitDy=0;" edge="1" parent="1" source="lhTCApkAulSA1Vch31sw-14" target="lhTCApkAulSA1Vch31sw-17">
          <mxGeometry width="50" height="50" relative="1" as="geometry">
            <mxPoint x="-120" y="430" as="sourcePoint" />
            <mxPoint x="-70" y="380" as="targetPoint" />
          </mxGeometry>
        </mxCell>
        <mxCell id="lhTCApkAulSA1Vch31sw-19" value="" style="endArrow=classic;html=1;rounded=0;entryX=0;entryY=0.5;entryDx=0;entryDy=0;exitX=1;exitY=0.5;exitDx=0;exitDy=0;strokeColor=#007FFF;" edge="1" parent="1" source="lhTCApkAulSA1Vch31sw-3" target="lhTCApkAulSA1Vch31sw-17">
          <mxGeometry width="50" height="50" relative="1" as="geometry">
            <mxPoint x="-140" y="440" as="sourcePoint" />
            <mxPoint x="-90" y="390" as="targetPoint" />
          </mxGeometry>
        </mxCell>
        <mxCell id="lhTCApkAulSA1Vch31sw-20" value="" style="endArrow=classic;html=1;rounded=0;exitX=1;exitY=0.5;exitDx=0;exitDy=0;entryX=0.5;entryY=1;entryDx=0;entryDy=0;strokeColor=#007FFF;" edge="1" parent="1" source="lhTCApkAulSA1Vch31sw-7" target="lhTCApkAulSA1Vch31sw-17">
          <mxGeometry width="50" height="50" relative="1" as="geometry">
            <mxPoint x="-50" y="460" as="sourcePoint" />
            <mxPoint y="410" as="targetPoint" />
            <Array as="points">
              <mxPoint x="120" y="495" />
            </Array>
          </mxGeometry>
        </mxCell>
        <mxCell id="lhTCApkAulSA1Vch31sw-21" value="output" style="ellipse;whiteSpace=wrap;html=1;" vertex="1" parent="1">
          <mxGeometry x="260" y="340" width="120" height="80" as="geometry" />
        </mxCell>
        <mxCell id="lhTCApkAulSA1Vch31sw-30" value="" style="endArrow=classic;html=1;rounded=0;entryX=0.5;entryY=0;entryDx=0;entryDy=0;exitX=1;exitY=0.75;exitDx=0;exitDy=0;" edge="1" parent="1" source="lhTCApkAulSA1Vch31sw-9" target="lhTCApkAulSA1Vch31sw-3">
          <mxGeometry width="50" height="50" relative="1" as="geometry">
            <mxPoint x="-180" y="410" as="sourcePoint" />
            <mxPoint x="-130" y="360" as="targetPoint" />
            <Array as="points">
              <mxPoint x="-135" y="310" />
            </Array>
          </mxGeometry>
        </mxCell>
        <mxCell id="lhTCApkAulSA1Vch31sw-31" value="" style="endArrow=classic;html=1;rounded=0;exitX=1;exitY=0.75;exitDx=0;exitDy=0;entryX=0;entryY=0;entryDx=0;entryDy=0;" edge="1" parent="1" source="lhTCApkAulSA1Vch31sw-1" target="lhTCApkAulSA1Vch31sw-3">
          <mxGeometry width="50" height="50" relative="1" as="geometry">
            <mxPoint x="-180" y="410" as="sourcePoint" />
            <mxPoint x="-130" y="360" as="targetPoint" />
            <Array as="points">
              <mxPoint x="-340" y="360" />
            </Array>
          </mxGeometry>
        </mxCell>
        <mxCell id="lhTCApkAulSA1Vch31sw-32" value="" style="endArrow=classic;html=1;rounded=0;entryX=0;entryY=1;entryDx=0;entryDy=0;exitX=1;exitY=0;exitDx=0;exitDy=0;" edge="1" parent="1" source="lhTCApkAulSA1Vch31sw-3" target="lhTCApkAulSA1Vch31sw-14">
          <mxGeometry width="50" height="50" relative="1" as="geometry">
            <mxPoint x="-70" y="410" as="sourcePoint" />
            <mxPoint x="-20" y="360" as="targetPoint" />
          </mxGeometry>
        </mxCell>
        <mxCell id="lhTCApkAulSA1Vch31sw-33" value="" style="endArrow=classic;html=1;rounded=0;entryX=0.5;entryY=1;entryDx=0;entryDy=0;exitX=1;exitY=0;exitDx=0;exitDy=0;" edge="1" parent="1" source="lhTCApkAulSA1Vch31sw-7" target="lhTCApkAulSA1Vch31sw-14">
          <mxGeometry width="50" height="50" relative="1" as="geometry">
            <mxPoint x="-30" y="410" as="sourcePoint" />
            <mxPoint x="20" y="360" as="targetPoint" />
            <Array as="points">
              <mxPoint x="70" y="478" />
            </Array>
          </mxGeometry>
        </mxCell>
      </root>
    </mxGraphModel>
  </diagram>
</mxfile>
